<svg width="11" height="14" viewBox="0 0 11 14" fill="none" xmlns="http://www.w3.org/2000/svg">
<path d="M7.36107 1.4315C7.48995 1.59558 7.56236 1.8181 7.56236 2.05012C7.56236 2.28214 7.48995 2.50466 7.36107 2.66875L3.95794 7L7.36107 11.3312C7.4863 11.4963 7.5556 11.7173 7.55403 11.9467C7.55246 12.1761 7.48016 12.3956 7.35269 12.5578C7.22522 12.7201 7.05279 12.8121 6.87253 12.8141C6.69227 12.8161 6.5186 12.7279 6.38894 12.5685L2.49975 7.61862C2.37087 7.45453 2.29846 7.23202 2.29846 7C2.29846 6.76798 2.37087 6.54546 2.49975 6.38137L6.38894 1.4315C6.51787 1.26746 6.6927 1.17531 6.875 1.17531C7.0573 1.17531 7.23214 1.26746 7.36107 1.4315Z" fill="white"/>
</svg>
